<svg width="179" height="163" viewBox="0 0 179 163" fill="none" xmlns="http://www.w3.org/2000/svg">
<circle cx="81.5" cy="81.5" r="81.5" fill="#611463"/>
<path d="M22 101.483V62.7749L67.861 43L143.174 77.9217V101.483" stroke="white" stroke-width="4" stroke-linecap="round"/>
<path d="M28.6433 91.544H31.5233V100.952C31.3953 101 31.2033 101.04 30.9473 101.072C30.7073 101.12 30.4513 101.144 30.1793 101.144C29.6353 101.144 29.2433 101.048 29.0033 100.856C28.7633 100.648 28.6433 100.304 28.6433 99.824V91.544ZM31.5233 94.736H28.6433V86.432C28.7713 86.4 28.9633 86.36 29.2193 86.312C29.4753 86.264 29.7313 86.24 29.9873 86.24C30.5153 86.24 30.8993 86.336 31.1393 86.528C31.3953 86.72 31.5233 87.072 31.5233 87.584V94.736ZM37.8593 91.544H40.7153V100.952C40.5873 101 40.3953 101.04 40.1393 101.072C39.8993 101.12 39.6513 101.144 39.3953 101.144C38.8513 101.144 38.4593 101.048 38.2193 100.856C37.9793 100.648 37.8593 100.304 37.8593 99.824V91.544ZM40.7153 94.736H37.8593V86.432C37.9713 86.4 38.1553 86.36 38.4113 86.312C38.6673 86.264 38.9233 86.24 39.1793 86.24C39.7073 86.24 40.0913 86.344 40.3313 86.552C40.5873 86.744 40.7153 87.096 40.7153 87.608V94.736ZM39.4433 94.808H30.0833V92.504H39.4433V94.808ZM55.1905 95.336C55.1905 96.568 54.9505 97.632 54.4705 98.528C54.0065 99.424 53.3425 100.12 52.4785 100.616C51.6145 101.096 50.5905 101.336 49.4065 101.336C48.2385 101.336 47.2145 101.096 46.3345 100.616C45.4705 100.12 44.7985 99.424 44.3185 98.528C43.8545 97.632 43.6225 96.568 43.6225 95.336C43.6225 94.104 43.8625 93.048 44.3425 92.168C44.8225 91.272 45.4945 90.584 46.3585 90.104C47.2385 89.608 48.2625 89.36 49.4305 89.36C50.5825 89.36 51.5905 89.608 52.4545 90.104C53.3185 90.584 53.9905 91.272 54.4705 92.168C54.9505 93.064 55.1905 94.12 55.1905 95.336ZM49.4065 91.568C48.5105 91.568 47.7985 91.904 47.2705 92.576C46.7425 93.232 46.4785 94.152 46.4785 95.336C46.4785 96.536 46.7345 97.464 47.2465 98.12C47.7585 98.776 48.4785 99.104 49.4065 99.104C50.3345 99.104 51.0545 98.776 51.5665 98.12C52.0945 97.448 52.3585 96.52 52.3585 95.336C52.3585 94.168 52.0945 93.248 51.5665 92.576C51.0545 91.904 50.3345 91.568 49.4065 91.568ZM67.5363 93.176V95.936H64.7523V93.488C64.7523 92.832 64.5603 92.352 64.1763 92.048C63.7923 91.728 63.2963 91.568 62.6883 91.568C62.2563 91.568 61.8563 91.64 61.4883 91.784C61.1203 91.912 60.8163 92.056 60.5763 92.216V95.936H57.7923V92.072C57.7923 91.704 57.8643 91.4 58.0083 91.16C58.1683 90.904 58.4163 90.672 58.7523 90.464C59.2323 90.144 59.8323 89.88 60.5523 89.672C61.2723 89.464 62.0083 89.36 62.7603 89.36C63.5443 89.36 64.2643 89.48 64.9203 89.72C65.5763 89.96 66.1043 90.312 66.5043 90.776C66.6163 90.872 66.7123 90.968 66.7923 91.064C66.8883 91.16 66.9683 91.272 67.0323 91.4C67.1763 91.624 67.2963 91.896 67.3923 92.216C67.4883 92.52 67.5363 92.84 67.5363 93.176ZM74.4963 93.392V95.936H71.7123V93.488C71.7123 92.832 71.5283 92.352 71.1603 92.048C70.7923 91.728 70.2963 91.568 69.6723 91.568C69.2243 91.568 68.7843 91.664 68.3523 91.856C67.9363 92.048 67.5683 92.304 67.2483 92.624L65.9043 90.872C66.3683 90.456 66.9363 90.104 67.6083 89.816C68.2963 89.512 69.0963 89.36 70.0083 89.36C70.8563 89.36 71.6163 89.496 72.2883 89.768C72.9763 90.04 73.5123 90.48 73.8963 91.088C74.2963 91.68 74.4963 92.448 74.4963 93.392ZM57.7923 94.76H60.5763V100.952C60.4483 101 60.2723 101.04 60.0483 101.072C59.8243 101.12 59.5763 101.144 59.3043 101.144C58.7923 101.144 58.4083 101.048 58.1523 100.856C57.9123 100.664 57.7923 100.336 57.7923 99.872V94.76ZM64.7523 94.76H67.5363V100.952C67.4243 101 67.2483 101.04 67.0083 101.072C66.7843 101.12 66.5363 101.144 66.2643 101.144C65.7523 101.144 65.3683 101.048 65.1123 100.856C64.8723 100.664 64.7523 100.336 64.7523 99.872V94.76ZM71.7123 94.76H74.4963V100.952C74.3843 101 74.2083 101.04 73.9683 101.072C73.7443 101.12 73.5043 101.144 73.2483 101.144C72.7203 101.144 72.3283 101.048 72.0723 100.856C71.8323 100.664 71.7123 100.336 71.7123 99.872V94.76ZM78.8673 96.8L78.7473 94.832L85.3233 93.872C85.2753 93.216 85.0273 92.656 84.5793 92.192C84.1313 91.712 83.4993 91.472 82.6833 91.472C81.8353 91.472 81.1313 91.768 80.5713 92.36C80.0113 92.952 79.7233 93.8 79.7073 94.904L79.7793 96.032C79.9073 97.104 80.2993 97.896 80.9553 98.408C81.6273 98.92 82.4833 99.176 83.5233 99.176C84.1953 99.176 84.8113 99.072 85.3713 98.864C85.9473 98.656 86.4033 98.432 86.7393 98.192C86.9473 98.336 87.1153 98.512 87.2433 98.72C87.3873 98.912 87.4593 99.136 87.4593 99.392C87.4593 99.776 87.2753 100.12 86.9073 100.424C86.5553 100.712 86.0673 100.936 85.4433 101.096C84.8353 101.256 84.1393 101.336 83.3553 101.336C82.1073 101.336 81.0113 101.112 80.0673 100.664C79.1393 100.2 78.4113 99.512 77.8833 98.6C77.3553 97.688 77.0913 96.568 77.0913 95.24C77.0913 94.264 77.2353 93.408 77.5233 92.672C77.8273 91.936 78.2353 91.328 78.7473 90.848C79.2593 90.352 79.8513 89.984 80.5233 89.744C81.2113 89.488 81.9313 89.36 82.6833 89.36C83.7233 89.36 84.6353 89.576 85.4193 90.008C86.2193 90.424 86.8353 91.008 87.2673 91.76C87.7153 92.512 87.9393 93.368 87.9393 94.328C87.9393 94.76 87.8273 95.08 87.6033 95.288C87.3953 95.496 87.0993 95.624 86.7153 95.672L78.8673 96.8Z" fill="white"/>
<path d="M101.768 88.232C101.768 88.52 101.688 88.776 101.528 89C101.368 89.224 101.176 89.4 100.952 89.528C100.552 89.24 100.088 88.984 99.5596 88.76C99.0316 88.52 98.3676 88.4 97.5676 88.4C96.6556 88.4 95.8556 88.608 95.1676 89.024C94.4796 89.424 93.9356 90.024 93.5356 90.824C93.1516 91.608 92.9596 92.576 92.9596 93.728C92.9596 95.472 93.3916 96.792 94.2556 97.688C95.1196 98.568 96.2716 99.008 97.7116 99.008C98.4636 99.008 99.1196 98.904 99.6796 98.696C100.24 98.472 100.72 98.224 101.12 97.952C101.328 98.08 101.504 98.264 101.648 98.504C101.808 98.728 101.888 98.984 101.888 99.272C101.888 99.528 101.816 99.76 101.672 99.968C101.544 100.176 101.328 100.368 101.024 100.544C100.688 100.752 100.224 100.936 99.6316 101.096C99.0396 101.272 98.2956 101.36 97.3996 101.36C96.0236 101.36 94.7756 101.08 93.6556 100.52C92.5356 99.96 91.6476 99.12 90.9916 98C90.3356 96.864 90.0076 95.44 90.0076 93.728C90.0076 92.048 90.3356 90.64 90.9916 89.504C91.6636 88.368 92.5436 87.512 93.6316 86.936C94.7356 86.344 95.9356 86.048 97.2316 86.048C98.1596 86.048 98.9596 86.152 99.6316 86.36C100.32 86.568 100.848 86.84 101.216 87.176C101.584 87.496 101.768 87.848 101.768 88.232ZM108.801 99.224C109.313 99.224 109.761 99.176 110.145 99.08C110.545 98.968 110.841 98.848 111.033 98.72V95.864L108.537 96.128C107.865 96.176 107.353 96.328 107.001 96.584C106.649 96.824 106.473 97.176 106.473 97.64C106.473 98.12 106.657 98.504 107.025 98.792C107.409 99.08 108.001 99.224 108.801 99.224ZM108.705 89.36C110.241 89.36 111.465 89.688 112.377 90.344C113.289 91 113.745 92.032 113.745 93.44V99.008C113.745 99.376 113.657 99.672 113.481 99.896C113.305 100.104 113.073 100.296 112.785 100.472C112.337 100.728 111.777 100.936 111.105 101.096C110.433 101.272 109.665 101.36 108.801 101.36C107.233 101.36 105.993 101.056 105.081 100.448C104.185 99.824 103.737 98.912 103.737 97.712C103.737 96.656 104.073 95.848 104.745 95.288C105.433 94.712 106.425 94.36 107.721 94.232L111.009 93.896V93.416C111.009 92.76 110.785 92.28 110.337 91.976C109.889 91.672 109.265 91.52 108.465 91.52C107.841 91.52 107.225 91.608 106.617 91.784C106.025 91.944 105.497 92.136 105.033 92.36C104.873 92.232 104.729 92.064 104.601 91.856C104.489 91.648 104.433 91.432 104.433 91.208C104.433 90.648 104.737 90.232 105.345 89.96C105.793 89.768 106.313 89.624 106.905 89.528C107.497 89.416 108.097 89.36 108.705 89.36ZM119.615 92.288V95.672H116.831V92.12C116.831 91.72 116.919 91.392 117.095 91.136C117.271 90.864 117.535 90.608 117.887 90.368C118.367 90.08 118.975 89.84 119.711 89.648C120.447 89.456 121.239 89.36 122.087 89.36C123.543 89.36 124.271 89.8 124.271 90.68C124.271 90.888 124.239 91.088 124.175 91.28C124.127 91.456 124.055 91.608 123.959 91.736C123.799 91.704 123.591 91.672 123.335 91.64C123.095 91.608 122.847 91.592 122.591 91.592C121.983 91.592 121.423 91.664 120.911 91.808C120.399 91.936 119.967 92.096 119.615 92.288ZM116.831 94.664L119.615 94.832V100.952C119.487 101 119.311 101.04 119.087 101.072C118.863 101.12 118.615 101.144 118.343 101.144C117.831 101.144 117.447 101.048 117.191 100.856C116.951 100.664 116.831 100.336 116.831 99.872V94.664ZM127.149 96.8L127.029 94.832L133.605 93.872C133.557 93.216 133.309 92.656 132.861 92.192C132.413 91.712 131.781 91.472 130.965 91.472C130.117 91.472 129.413 91.768 128.853 92.36C128.293 92.952 128.005 93.8 127.989 94.904L128.061 96.032C128.189 97.104 128.581 97.896 129.237 98.408C129.909 98.92 130.765 99.176 131.805 99.176C132.477 99.176 133.093 99.072 133.653 98.864C134.229 98.656 134.685 98.432 135.021 98.192C135.229 98.336 135.397 98.512 135.525 98.72C135.669 98.912 135.741 99.136 135.741 99.392C135.741 99.776 135.557 100.12 135.189 100.424C134.837 100.712 134.349 100.936 133.725 101.096C133.117 101.256 132.421 101.336 131.637 101.336C130.389 101.336 129.293 101.112 128.349 100.664C127.421 100.2 126.693 99.512 126.165 98.6C125.637 97.688 125.373 96.568 125.373 95.24C125.373 94.264 125.517 93.408 125.805 92.672C126.109 91.936 126.517 91.328 127.029 90.848C127.541 90.352 128.133 89.984 128.805 89.744C129.493 89.488 130.213 89.36 130.965 89.36C132.005 89.36 132.917 89.576 133.701 90.008C134.501 90.424 135.117 91.008 135.549 91.76C135.997 92.512 136.221 93.368 136.221 94.328C136.221 94.76 136.109 95.08 135.885 95.288C135.677 95.496 135.381 95.624 134.997 95.672L127.149 96.8Z" fill="#FF964A"/>
<path d="M59.5254 66.641H76.1966V74.4766H59.5254V66.641ZM76.1966 65.641H59.5254V57.8054H76.1966V65.641Z" fill="white" stroke="#611463"/>
<path d="M67.861 57.3054V74.9766" stroke="#611463"/>
</svg>
