<svg width="27" height="26" viewBox="0 0 27 26" fill="none" xmlns="http://www.w3.org/2000/svg">
<path d="M13.9653 5.42588C15.828 5.39818 17.6295 6.06898 18.9916 7.29752L22.6603 3.82972C20.3065 1.69774 17.1907 0.528681 13.9653 0.567335C11.5554 0.566797 9.19282 1.2143 7.14181 2.43743C5.0908 3.66056 3.43223 5.41109 2.35156 7.49327L6.55531 10.6481C7.06933 9.13734 8.06098 7.82064 9.39044 6.8837C10.7199 5.94676 12.3201 5.43685 13.9653 5.42588Z" fill="#EA4335"/>
<path d="M26.4444 13.4126C26.4597 12.5487 26.3673 11.6863 26.1694 10.8438H13.9644V15.5078H21.1294C20.9934 16.3255 20.6878 17.1082 20.2309 17.8088C19.774 18.5094 19.1752 19.1134 18.4706 19.5845L22.5731 22.656C23.8517 21.4628 24.8571 20.0236 25.5246 18.4315C26.192 16.8393 26.5067 15.1296 26.4481 13.4126H26.4444Z" fill="#4285F4"/>
<path d="M6.57076 15.6189C6.28653 14.819 6.14 13.9793 6.13701 13.1335C6.14219 12.289 6.28347 11.4504 6.55576 10.648L2.35201 7.49316C1.44025 9.24294 0.965332 11.1749 0.965332 13.1341C0.965332 15.0933 1.44025 17.0252 2.35201 18.775L6.57076 15.6189Z" fill="#FBBC05"/>
<path d="M13.9659 25.6999C17.1325 25.7865 20.2132 24.6973 22.5747 22.6562L18.4722 19.5848C17.142 20.4468 15.5667 20.8861 13.9659 20.8414C12.3221 20.8319 10.7231 20.3224 9.3957 19.385C8.06833 18.4476 7.08001 17.13 6.57094 15.6191L2.36719 18.7752C3.44494 20.8564 5.1008 22.6066 7.14933 23.8296C9.19786 25.0526 11.5582 25.7002 13.9659 25.6999Z" fill="#34A853"/>
</svg>
